<svg
   xmlns:dc="http://purl.org/dc/elements/1.1/"
   xmlns:cc="http://creativecommons.org/ns#"
   xmlns:rdf="http://www.w3.org/1999/02/22-rdf-syntax-ns#"
   xmlns:svg="http://www.w3.org/2000/svg"
   xmlns="http://www.w3.org/2000/svg"
   xmlns:sodipodi="http://sodipodi.sourceforge.net/DTD/sodipodi-0.dtd"
   xmlns:inkscape="http://www.inkscape.org/namespaces/inkscape"
   sodipodi:docname="NG SOS logo basic.svg"
   inkscape:version="1.0 (4035a4fb49, 2020-05-01)"
   id="svg8"
   version="1.1"
   viewBox="0 0 507.99999 285.75001"
   height="1080"
   width="1920">
  <defs
     id="defs2">
    <clipPath
       clipPathUnits="userSpaceOnUse"
       id="clipPath26">
      <path
         d="M 0,179.212 H 675.026 V 0 H 0 Z"
         id="path24" />
    </clipPath>
  </defs>
  <sodipodi:namedview
     inkscape:window-maximized="1"
     inkscape:window-y="35"
     inkscape:window-x="-11"
     inkscape:window-height="2080"
     inkscape:window-width="3840"
     inkscape:snap-center="false"
     units="px"
     showgrid="false"
     inkscape:document-rotation="0"
     inkscape:current-layer="layer1"
     inkscape:document-units="mm"
     inkscape:cy="540"
     inkscape:cx="960"
     inkscape:zoom="0.8117387"
     inkscape:pageshadow="2"
     inkscape:pageopacity="0.0"
     borderopacity="1.0"
     bordercolor="#666666"
     pagecolor="#ffffff"
     id="base" />
  <metadata
     id="metadata5">
    <rdf:RDF>
      <cc:Work
         rdf:about="">
        <dc:format>image/svg+xml</dc:format>
        <dc:type
           rdf:resource="http://purl.org/dc/dcmitype/StillImage" />
        <dc:title></dc:title>
      </cc:Work>
    </rdf:RDF>
  </metadata>
  <g
     id="layer1"
     inkscape:groupmode="layer"
     inkscape:label="Vrstva 1">
    <g
       transform="translate(0.97783929,2.6075715)"
       id="g76">
      <g
         id="g28"
         transform="matrix(0.70555554,0,0,-0.70555554,152.56886,137.14582)">
        <path
           d="m 0,0 c -2.537,-12.47 -7.384,-24.376 -13.968,-35.307 h -17.761 c 6.868,10.029 11.862,21.262 14.274,33.116 2.282,11.216 2.099,22.056 -0.38,31.989 h 19.1 C 2.479,20.335 2.098,10.312 0,0 m -144.28,-35.288 h -19.547 c -3.333,10.031 -3.892,21.32 -1.496,33.097 2.344,11.52 7.322,22.4 14.157,32.038 l 18.852,0.018 c -8.262,-8.863 -14.302,-19.76 -16.698,-31.538 -2.507,-12.317 -0.813,-24.008 4.732,-33.615 M -24.099,-0.84 c -2.543,-12.497 -8.177,-24.246 -15.929,-34.467 h -17.829 c 8.648,9.004 14.979,20.206 17.447,32.339 2.433,11.955 0.916,23.323 -4.245,32.766 h 19.813 c 2.649,-9.403 2.945,-19.814 0.743,-30.638 m -146.828,-34.448 h -19.017 c -1.798,10.442 -1.587,21.635 0.763,33.187 2.277,11.192 6.412,21.934 11.994,31.923 l 17.895,0.017 c -6.039,-9.4 -10.456,-19.773 -12.675,-30.679 -2.471,-12.149 -2.062,-23.86 1.04,-34.448 M 442.009,15.79 c 0.004,-1.377 0.264,-2.524 0.772,-3.408 0.559,-0.971 1.282,-1.768 2.212,-2.433 1.047,-0.75 2.31,-1.409 3.753,-1.961 1.603,-0.615 3.322,-1.208 5.111,-1.763 2.684,-0.827 5.414,-1.731 8.11,-2.684 2.883,-1.021 5.525,-2.365 7.853,-3.996 2.456,-1.724 4.467,-3.954 5.978,-6.632 1.539,-2.728 2.327,-6.087 2.342,-9.983 0.017,-4.86 -0.916,-9.294 -2.772,-13.175 -1.859,-3.887 -4.546,-7.231 -7.983,-9.939 -3.386,-2.665 -7.525,-4.718 -12.303,-6.104 -4.69,-1.358 -9.97,-2.047 -15.691,-2.047 -2.979,0 -5.888,0.196 -8.649,0.581 -2.731,0.381 -5.272,0.866 -7.552,1.442 -2.307,0.583 -4.382,1.243 -6.164,1.961 -1.845,0.741 -3.292,1.445 -4.424,2.152 l -1.56,0.973 3.595,17.603 3.07,-1.496 c 2.953,-1.439 6.341,-2.676 10.068,-3.676 3.661,-0.983 7.595,-1.482 11.695,-1.482 2.882,0 5.504,0.303 7.792,0.9 2.216,0.578 4.112,1.396 5.634,2.433 1.437,0.976 2.514,2.161 3.296,3.622 0.776,1.449 1.15,3.064 1.142,4.939 v 10e-4 c -0.004,1.256 -0.297,2.212 -0.897,2.921 -0.763,0.899 -1.798,1.668 -3.078,2.284 -1.481,0.711 -3.224,1.351 -5.179,1.902 -2.129,0.599 -4.307,1.229 -6.538,1.89 -2.749,0.872 -5.311,1.898 -7.666,3.063 -2.485,1.23 -4.677,2.774 -6.516,4.588 -1.892,1.863 -3.403,4.138 -4.488,6.761 -1.08,2.61 -1.633,5.644 -1.645,9.018 -0.015,4.216 0.763,8.136 2.313,11.65 1.557,3.53 3.807,6.592 6.689,9.1 2.85,2.479 6.325,4.414 10.33,5.754 3.945,1.317 8.389,1.985 13.209,1.985 5.011,0 10.052,-0.55 14.982,-1.634 4.906,-1.08 9.298,-2.448 13.054,-4.07 l 1.983,-0.855 -3.687,-17.716 -2.929,1.166 c -4.494,1.789 -8.54,3.096 -12.025,3.884 -3.429,0.775 -6.911,1.168 -10.347,1.168 -4.277,0 -7.593,-0.859 -9.854,-2.554 -2.081,-1.558 -3.045,-3.508 -3.036,-6.133 m -79.591,-46.067 c -2.431,0 -4.636,0.351 -6.555,1.045 -1.85,0.668 -3.368,1.635 -4.638,2.952 -1.273,1.322 -2.272,3.001 -2.97,4.991 -0.728,2.07 -1.101,4.547 -1.11,7.363 -0.011,2.949 0.264,6.015 0.817,9.111 0.552,3.087 1.387,6.111 2.482,8.987 1.088,2.854 2.463,5.569 4.089,8.07 1.592,2.452 3.454,4.623 5.534,6.45 2.041,1.791 4.347,3.225 6.852,4.259 2.453,1.013 5.198,1.526 8.157,1.526 4.852,0 8.525,-1.318 11.225,-4.03 2.668,-2.681 4.03,-6.826 4.048,-12.321 0.011,-2.947 -0.264,-6.013 -0.818,-9.112 -0.553,-3.092 -1.387,-6.116 -2.481,-8.985 -1.088,-2.854 -2.463,-5.569 -4.088,-8.071 -1.595,-2.456 -3.457,-4.626 -5.536,-6.451 -2.041,-1.791 -4.347,-3.225 -6.851,-4.258 -2.452,-1.013 -5.197,-1.526 -8.157,-1.526 m 38.658,64.103 c -3.067,2.902 -6.787,5.11 -11.056,6.565 -4.185,1.422 -8.876,2.143 -13.943,2.143 -6.173,0 -11.775,-0.963 -16.65,-2.862 -4.841,-1.885 -9.157,-4.421 -12.827,-7.539 -3.644,-3.097 -6.78,-6.702 -9.322,-10.712 -2.497,-3.941 -4.553,-8.046 -6.111,-12.201 -1.556,-4.144 -2.695,-8.301 -3.385,-12.356 -0.686,-4.036 -1.027,-7.777 -1.015,-11.117 0.018,-5.444 0.862,-10.338 2.507,-14.548 1.666,-4.272 4.069,-7.914 7.145,-10.825 3.067,-2.904 6.787,-5.112 11.054,-6.564 4.182,-1.423 8.873,-2.145 13.943,-2.145 6.171,0 11.774,0.963 16.652,2.862 4.843,1.888 9.159,4.424 12.826,7.54 3.646,3.098 6.782,6.702 9.322,10.712 2.492,3.932 4.548,8.037 6.113,12.202 1.557,4.151 2.695,8.307 3.382,12.353 0.686,4.04 1.028,7.781 1.017,11.119 -0.019,5.439 -0.862,10.333 -2.506,14.549 -1.67,4.273 -4.074,7.914 -7.146,10.824 m -81.587,3.004 1.983,-0.856 -3.687,-17.715 -2.928,1.166 c -4.495,1.789 -8.541,3.096 -12.026,3.884 -3.429,0.775 -6.911,1.168 -10.348,1.168 -4.276,0 -7.592,-0.859 -9.853,-2.554 -2.08,-1.558 -3.045,-3.508 -3.036,-6.134 0.004,-1.375 0.265,-2.522 0.773,-3.407 0.558,-0.971 1.281,-1.767 2.212,-2.433 1.046,-0.75 2.308,-1.409 3.752,-1.961 1.604,-0.615 3.322,-1.208 5.11,-1.763 2.693,-0.829 5.423,-1.733 8.112,-2.684 2.883,-1.02 5.525,-2.365 7.853,-3.996 2.454,-1.722 4.465,-3.953 5.977,-6.631 1.542,-2.731 2.33,-6.091 2.343,-9.985 0.017,-4.859 -0.916,-9.293 -2.772,-13.174 -1.859,-3.885 -4.545,-7.23 -7.984,-9.938 -3.385,-2.666 -7.524,-4.719 -12.302,-6.105 -4.69,-1.358 -9.97,-2.047 -15.692,-2.047 -2.979,0 -5.89,0.196 -8.648,0.581 -2.733,0.381 -5.273,0.866 -7.552,1.442 -2.305,0.582 -4.379,1.242 -6.166,1.961 -1.844,0.742 -3.291,1.446 -4.423,2.152 l -1.559,0.973 3.594,17.603 3.07,-1.496 c 2.956,-1.44 6.344,-2.676 10.069,-3.676 3.661,-0.983 7.595,-1.482 11.693,-1.482 2.883,0 5.505,0.303 7.794,0.9 2.214,0.578 4.109,1.395 5.634,2.433 1.436,0.976 2.514,2.162 3.296,3.622 0.775,1.449 1.149,3.064 1.142,4.939 v 10e-4 c -0.004,1.256 -0.298,2.212 -0.897,2.921 -0.762,0.899 -1.799,1.668 -3.079,2.284 -1.48,0.711 -3.223,1.351 -5.178,1.902 -2.13,0.599 -4.308,1.229 -6.538,1.89 -2.749,0.872 -5.312,1.898 -7.666,3.063 -2.483,1.229 -4.675,2.772 -6.517,4.588 -1.895,1.866 -3.404,4.142 -4.487,6.762 -1.08,2.609 -1.634,5.643 -1.645,9.017 -0.015,4.218 0.763,8.138 2.312,11.65 1.557,3.531 3.809,6.592 6.69,9.1 2.851,2.48 6.327,4.415 10.331,5.754 3.944,1.317 8.387,1.985 13.208,1.985 5.011,0 10.051,-0.55 14.982,-1.634 4.907,-1.08 9.298,-2.448 13.053,-4.07 M 177.373,2.644 h 38.902 l -4.399,-21.608 c -1.156,-5.625 -3.037,-10.385 -5.59,-14.152 -2.567,-3.785 -5.689,-6.85 -9.28,-9.109 -3.544,-2.231 -7.524,-3.831 -11.828,-4.756 -4.183,-0.898 -8.616,-1.354 -13.173,-1.354 -4.841,0 -9.384,0.759 -13.502,2.256 -4.181,1.519 -7.851,3.804 -10.91,6.79 -3.06,2.985 -5.476,6.723 -7.181,11.108 -1.684,4.333 -2.548,9.372 -2.568,14.976 -0.017,5.061 0.494,10.015 1.52,14.722 1.03,4.73 2.578,9.207 4.601,13.307 2.03,4.117 4.572,7.921 7.554,11.307 2.995,3.401 6.474,6.357 10.339,8.784 3.859,2.425 8.198,4.322 12.895,5.64 4.681,1.313 9.788,1.979 15.177,1.979 4.457,0 8.772,-0.4 12.824,-1.19 4.027,-0.785 7.676,-1.79 10.845,-2.988 l 2.109,-0.797 -3.61,-17.685 -2.894,1.067 c -3.304,1.219 -6.471,2.125 -9.413,2.69 -6.628,1.272 -13.396,1.114 -19.02,-0.582 -3.119,-0.942 -5.907,-2.262 -8.285,-3.922 -2.394,-1.671 -4.504,-3.666 -6.271,-5.931 -1.794,-2.299 -3.295,-4.832 -4.461,-7.53 -1.182,-2.732 -2.078,-5.64 -2.662,-8.641 -0.59,-3.019 -0.883,-6.101 -0.872,-9.163 0.021,-6.191 1.319,-10.846 3.857,-13.832 2.461,-2.899 6.157,-4.307 11.299,-4.307 2.478,0 4.817,0.273 6.952,0.813 2.026,0.511 3.838,1.328 5.386,2.427 1.522,1.082 2.837,2.514 3.91,4.255 1.092,1.776 1.9,3.971 2.401,6.521 l 0.185,0.973 h -18.443 z m -61.356,38.349 h 20.425 L 118.599,-46.793 H 100.157 L 82.386,-8.705 C 79.885,-3.39 77.666,1.627 75.751,6.297 75.054,1.885 74.187,-2.852 73.155,-7.872 L 65.218,-46.793 H 43.327 L 61.171,40.993 H 81.078 L 98.849,2.904 c 2.501,-5.291 4.718,-10.297 6.632,-14.966 0.659,4.061 1.527,8.778 2.596,14.121 z M -46.775,-1.673 c 1.596,7.847 1.231,15.355 -0.923,22.055 l 8.62,46.763 c 1.273,6.908 -4.002,13.292 -11.027,13.343 l -55.416,-0.272 c -6.665,-0.033 -12.436,-4.635 -13.951,-11.126 l -10.921,-46.797 c -6.004,-7.364 -10.372,-16.011 -12.254,-25.261 -1.638,-8.051 -1.22,-15.751 1.09,-22.581 l -11.08,-47.475 c -1.582,-6.779 2.827,-13.504 9.675,-14.756 l 58.526,-10.703 c 7.909,-1.447 15.499,3.772 16.98,11.674 l 11.898,64.548 c 4.215,6.253 7.286,13.23 8.783,20.588"
           style="fill:#d22630;fill-opacity:1;fill-rule:nonzero;stroke:none"
           id="path30" />
      </g>
      <g
         id="g32"
         transform="matrix(0.70555554,0,0,-0.70555554,97.969308,193.4704)">
        <path
           d="m 0,0 c -0.626,-3.337 -3.554,-5.774 -6.959,-5.774 -0.429,0 -0.864,0.04 -1.294,0.118 L -64.712,4.669 c -1.295,0.237 -2.407,0.974 -3.129,2.076 -0.723,1.102 -0.956,2.415 -0.656,3.698 l 31.993,137.095 c 0.729,3.125 3.48,5.319 6.689,5.334 l 53.405,0.262 c 1.568,-0.023 2.523,-0.897 2.954,-1.418 0.434,-0.526 1.119,-1.639 0.831,-3.2 z"
           style="fill:#ffffff;fill-opacity:1;fill-rule:nonzero;stroke:none"
           id="path34" />
      </g>
      <g
         id="g36"
         transform="matrix(0.70555554,0,0,-0.70555554,87.554745,191.61662)">
        <path
           d="m 0,0 -41.942,7.308 c -0.753,0.117 -1.46,-0.372 -1.592,-1.119 -0.13,-0.749 0.371,-1.462 1.12,-1.593 l 41.941,-7.307 c 0.08,-0.014 0.16,-0.021 0.238,-0.021 0.656,0 1.237,0.472 1.354,1.14 C 1.25,-0.844 0.748,-0.13 0,0 m 7.993,140.032 c 1.243,0 2.456,1.008 2.709,2.251 0.253,1.243 -0.55,2.251 -1.793,2.251 -1.243,0 -2.456,-1.008 -2.709,-2.251 -0.253,-1.243 0.55,-2.251 1.793,-2.251 M 16.228,75.619 C 13.906,64.208 2.774,54.958 -8.636,54.958 c -11.411,0 -18.779,9.25 -16.458,20.661 2.322,11.41 13.454,20.661 24.865,20.661 11.41,0 18.779,-9.251 16.457,-20.661"
           style="fill:#d22630;fill-opacity:1;fill-rule:nonzero;stroke:none"
           id="path38" />
      </g>
    </g>
  </g>
</svg>
