<svg xmlns="http://www.w3.org/2000/svg" xmlns:xlink="http://www.w3.org/1999/xlink" width="383.478" height="42.907" viewBox="0 0 383.478 42.907">
  <defs>
    <clipPath id="clip-path">
      <rect id="Rectangle_97" data-name="Rectangle 97" width="381.478" height="42.907" transform="translate(-2)" fill="none"/>
    </clipPath>
    <clipPath id="clip-path-2">
      <rect id="Rectangle_98" data-name="Rectangle 98" width="381.478" height="42.907" fill="none"/>
    </clipPath>
  </defs>
  <g id="Group_142" data-name="Group 142" transform="translate(2 0)">
    <path id="Path_979" data-name="Path 979" d="M796.693,18.652h-1.917l-2.526,7.682-2.571-7.682H787.6L791.339,28.8h1.81Z" transform="translate(-483.117 -11.172)" fill="#fff"/>
    <g id="Group_139" data-name="Group 139" transform="translate(0 0)">
      <g id="Group_138" data-name="Group 138" transform="translate(0 0)" clip-path="url(#clip-path)">
        <path id="Path_980" data-name="Path 980" d="M816.271,31.68a3.848,3.848,0,0,0,.664-1.24,4.541,4.541,0,0,0,.224-1.407,4.477,4.477,0,0,0-.224-1.4,3.706,3.706,0,0,0-.672-1.224,3.348,3.348,0,0,0-1.112-.867,3.492,3.492,0,0,0-1.559-.326,3.542,3.542,0,0,0-1.567.326,3.255,3.255,0,0,0-1.112.867,3.783,3.783,0,0,0-.663,1.224,4.475,4.475,0,0,0-.224,1.4,4.539,4.539,0,0,0,.224,1.407,3.853,3.853,0,0,0,.663,1.24,3.277,3.277,0,0,0,1.112.882,3.83,3.83,0,0,0,3.134,0,3.264,3.264,0,0,0,1.111-.882m-1.953-.586a1.448,1.448,0,0,1-.726.176,1.489,1.489,0,0,1-.733-.176,1.523,1.523,0,0,1-.525-.481,2.306,2.306,0,0,1-.317-.71,3.583,3.583,0,0,1,0-1.748,2.11,2.11,0,0,1,.324-.71,1.645,1.645,0,0,1,.525-.473,1.583,1.583,0,0,1,1.451,0,1.649,1.649,0,0,1,.525.473,2.11,2.11,0,0,1,.324.71,3.592,3.592,0,0,1,0,1.748,2.217,2.217,0,0,1-.324.71,1.628,1.628,0,0,1-.525.481" transform="translate(-496.313 -15.102)" fill="#fff"/>
        <path id="Path_981" data-name="Path 981" d="M834.82,28.236l.077.563h1.76V18.652h-1.915v2.843a4.254,4.254,0,0,0-1.261-.211,3.471,3.471,0,0,0-1.555.327,3.253,3.253,0,0,0-1.1.867,3.681,3.681,0,0,0-.654,1.224,4.654,4.654,0,0,0-.215,1.4,5.1,5.1,0,0,0,.208,1.46,3.863,3.863,0,0,0,.608,1.232,3.047,3.047,0,0,0,.985.852,2.78,2.78,0,0,0,1.354.32,2.213,2.213,0,0,0,1.016-.221,2.4,2.4,0,0,0,.693-.51m-2.067-1.072a1.639,1.639,0,0,1-.522-.5,2.26,2.26,0,0,1-.307-.733,3.751,3.751,0,0,1-.1-.878,2.819,2.819,0,0,1,.115-.8,2.244,2.244,0,0,1,.346-.7,1.665,1.665,0,0,1,.583-.5,1.822,1.822,0,0,1,.845-.183,2.861,2.861,0,0,1,1.029.214v3.633a1.251,1.251,0,0,1-.522.451,1.571,1.571,0,0,1-.722.19,1.412,1.412,0,0,1-.744-.19" transform="translate(-508.131 -11.172)" fill="#fff"/>
        <path id="Path_982" data-name="Path 982" d="M854.175,32.722h1.745V28.011a3.435,3.435,0,0,0-.208-1.269,2.324,2.324,0,0,0-.579-.866,2.279,2.279,0,0,0-.88-.5,3.739,3.739,0,0,0-1.128-.16,4.623,4.623,0,0,0-.98.1,5.2,5.2,0,0,0-.819.243,4.39,4.39,0,0,0-.617.3,2.909,2.909,0,0,0-.378.259l.633,1.324a2.675,2.675,0,0,1,.287-.206,4.039,4.039,0,0,1,.411-.228,2.738,2.738,0,0,1,.528-.191,2.466,2.466,0,0,1,.621-.077,1.351,1.351,0,0,1,.876.259,1.059,1.059,0,0,1,.318.867v.106q-.295.031-.736.069a7.24,7.24,0,0,0-.814.114,5.431,5.431,0,0,0-1.007.274,3.27,3.27,0,0,0-.852.472,2.121,2.121,0,0,0-.59.707,2.074,2.074,0,0,0-.217.966,2.225,2.225,0,0,0,.21.981,2.25,2.25,0,0,0,.55.731,2.451,2.451,0,0,0,.782.456,2.7,2.7,0,0,0,.923.16,2.8,2.8,0,0,0,1.053-.193,2.106,2.106,0,0,0,.791-.53Zm-.154-1.94a2.125,2.125,0,0,1-.6.381,1.789,1.789,0,0,1-.723.152,1.193,1.193,0,0,1-.77-.221.716.716,0,0,1-.272-.586,1,1,0,0,1,.241-.646,1.437,1.437,0,0,1,.862-.418c.2-.04.4-.073.622-.1s.43-.043.637-.053Z" transform="translate(-519.892 -15.102)" fill="#fff"/>
        <path id="Path_983" data-name="Path 983" d="M868.391,28.5h1.914V22.692h1.59V21.171H870.29v-.35a.97.97,0,0,1,.27-.768.98.98,0,0,1,.671-.236,2.515,2.515,0,0,1,.718.083,2.943,2.943,0,0,1,.364.13l.216-1.567a3.712,3.712,0,0,0-.533-.175,4.292,4.292,0,0,0-1.15-.13,3.143,3.143,0,0,0-.973.145,2.034,2.034,0,0,0-.78.456,2.1,2.1,0,0,0-.517.806,3.471,3.471,0,0,0-.185,1.21v.4H867.4v1.521h.989Z" transform="translate(-530.335 -10.876)" fill="#fff"/>
        <path id="Path_984" data-name="Path 984" d="M886.151,26.409a3.357,3.357,0,0,0-1.112-.867,3.5,3.5,0,0,0-1.559-.326,3.544,3.544,0,0,0-1.568.326,3.252,3.252,0,0,0-1.112.867,3.784,3.784,0,0,0-.664,1.224,4.488,4.488,0,0,0-.224,1.4,4.554,4.554,0,0,0,.224,1.407,3.855,3.855,0,0,0,.664,1.24,3.274,3.274,0,0,0,1.112.882,3.83,3.83,0,0,0,3.134,0,3.276,3.276,0,0,0,1.112-.882,3.859,3.859,0,0,0,.663-1.24,4.541,4.541,0,0,0,.224-1.407,4.475,4.475,0,0,0-.224-1.4,3.71,3.71,0,0,0-.671-1.224m-1.1,3.495a2.213,2.213,0,0,1-.324.71,1.63,1.63,0,0,1-.526.481,1.443,1.443,0,0,1-.725.176,1.492,1.492,0,0,1-.734-.176,1.527,1.527,0,0,1-.525-.481,2.334,2.334,0,0,1-.316-.71,3.594,3.594,0,0,1,0-1.748,2.1,2.1,0,0,1,.324-.71,1.642,1.642,0,0,1,.525-.473,1.583,1.583,0,0,1,1.451,0,1.651,1.651,0,0,1,.526.473,2.107,2.107,0,0,1,.324.71,3.581,3.581,0,0,1,0,1.748" transform="translate(-537.753 -15.102)" fill="#fff"/>
        <path id="Path_985" data-name="Path 985" d="M902.827,27.527a3.549,3.549,0,0,1,.656-.5,1.575,1.575,0,0,1,.827-.229,1.18,1.18,0,0,1,.988.457,2.063,2.063,0,0,1,.355,1.293V32.73h1.914V28.394a4.857,4.857,0,0,0-.193-1.46,2.561,2.561,0,0,0-.548-.989,2.119,2.119,0,0,0-.85-.555,3.236,3.236,0,0,0-1.081-.174,3.4,3.4,0,0,0-1.135.2,3.325,3.325,0,0,0-1.011.562l-.092-.578h-1.745V32.73h1.914Z" transform="translate(-550.205 -15.102)" fill="#fff"/>
        <path id="Path_986" data-name="Path 986" d="M927.115,27.39a3.4,3.4,0,0,0-.7-1.24,2.685,2.685,0,0,0-1.042-.707,3.679,3.679,0,0,0-1.312-.228,3.451,3.451,0,0,0-1.336.259,3.225,3.225,0,0,0-1.1.745,3.446,3.446,0,0,0-.741,1.2,4.624,4.624,0,0,0-.271,1.643,4.466,4.466,0,0,0,.294,1.7,3.47,3.47,0,0,0,.788,1.194,3.077,3.077,0,0,0,1.15.707,4.176,4.176,0,0,0,1.382.228,6.123,6.123,0,0,0,1.051-.084,6.417,6.417,0,0,0,.834-.2,3.592,3.592,0,0,0,.594-.243,3.756,3.756,0,0,0,.348-.206l-.51-1.536a1.4,1.4,0,0,1-.279.2,3.73,3.73,0,0,1-.45.213,3.3,3.3,0,0,1-.6.174,3.654,3.654,0,0,1-.728.069,2.156,2.156,0,0,1-1.364-.41,1.754,1.754,0,0,1-.589-1.34h4.833V29.2a5.736,5.736,0,0,0-.255-1.81m-4.532.791a1.552,1.552,0,0,1,.528-1.1,1.482,1.482,0,0,1,.946-.365,1.293,1.293,0,0,1,.878.342,1.43,1.43,0,0,1,.326.456,1.933,1.933,0,0,1,.163.662Z" transform="translate(-561.892 -15.102)" fill="#fff"/>
        <path id="Path_987" data-name="Path 987" d="M761.126,68.539H763.1V64.447h3.737V62.636H763.1v-2.4h4.679V58.392h-6.655Z" transform="translate(-467.317 -34.974)" fill="#fff"/>
        <path id="Path_988" data-name="Path 988" d="M784.618,66.148a3.358,3.358,0,0,0-1.112-.867,3.5,3.5,0,0,0-1.56-.327,3.543,3.543,0,0,0-1.567.327,3.249,3.249,0,0,0-1.112.867,3.779,3.779,0,0,0-.664,1.225,4.473,4.473,0,0,0-.224,1.4,4.544,4.544,0,0,0,.224,1.407,3.851,3.851,0,0,0,.664,1.24,3.282,3.282,0,0,0,1.112.882,3.83,3.83,0,0,0,3.134,0,3.285,3.285,0,0,0,1.112-.882,3.873,3.873,0,0,0,.664-1.24,4.545,4.545,0,0,0,.224-1.407,4.475,4.475,0,0,0-.224-1.4,3.713,3.713,0,0,0-.671-1.225m-1.1,3.5a2.208,2.208,0,0,1-.324.709,1.626,1.626,0,0,1-.526.481,1.443,1.443,0,0,1-.725.175,1.494,1.494,0,0,1-.734-.175,1.529,1.529,0,0,1-.525-.481,2.315,2.315,0,0,1-.317-.709,3.61,3.61,0,0,1,0-1.748,2.106,2.106,0,0,1,.324-.709,1.649,1.649,0,0,1,.525-.473,1.58,1.58,0,0,1,1.451,0,1.645,1.645,0,0,1,.526.473,2.106,2.106,0,0,1,.324.709,3.582,3.582,0,0,1,0,1.748" transform="translate(-477.548 -38.904)" fill="#fff"/>
        <path id="Path_989" data-name="Path 989" d="M803.9,70.643a4.053,4.053,0,0,1-.617.419,1.869,1.869,0,0,1-.942.221,1.018,1.018,0,0,1-.957-.472,2.408,2.408,0,0,1-.278-1.232V65.41H799.19v4.366a3.476,3.476,0,0,0,.68,2.343,2.507,2.507,0,0,0,1.992.776,4,4,0,0,0,1.073-.152,2.832,2.832,0,0,0,1.058-.578l.062.578h1.761V65.41H803.9Z" transform="translate(-489.888 -39.177)" fill="#fff"/>
        <path id="Path_990" data-name="Path 990" d="M825.877,65.684a2.108,2.108,0,0,0-.849-.555,3.222,3.222,0,0,0-1.08-.175,3.4,3.4,0,0,0-1.135.2,3.327,3.327,0,0,0-1.011.562l-.092-.578h-1.745v7.333h1.914v-5.2a3.567,3.567,0,0,1,.657-.5,1.569,1.569,0,0,1,.826-.229,1.182,1.182,0,0,1,.988.457,2.063,2.063,0,0,1,.355,1.293v4.184h1.914V68.133a4.84,4.84,0,0,0-.193-1.46,2.556,2.556,0,0,0-.548-.989" transform="translate(-502.205 -38.904)" fill="#fff"/>
        <path id="Path_991" data-name="Path 991" d="M844.451,61.235a4.244,4.244,0,0,0-1.261-.211,3.473,3.473,0,0,0-1.555.327,3.252,3.252,0,0,0-1.1.867,3.676,3.676,0,0,0-.654,1.224,4.64,4.64,0,0,0-.215,1.4,5.089,5.089,0,0,0,.208,1.46,3.852,3.852,0,0,0,.608,1.232,3.046,3.046,0,0,0,.985.852,2.782,2.782,0,0,0,1.354.32,2.21,2.21,0,0,0,1.016-.221,2.391,2.391,0,0,0,.693-.51l.078.563h1.76V58.392h-1.915Zm0,5.218a1.254,1.254,0,0,1-.522.451,1.572,1.572,0,0,1-.723.19,1.412,1.412,0,0,1-.744-.19,1.64,1.64,0,0,1-.522-.5,2.263,2.263,0,0,1-.307-.733,3.77,3.77,0,0,1-.1-.878,2.824,2.824,0,0,1,.115-.8,2.246,2.246,0,0,1,.346-.7,1.655,1.655,0,0,1,.583-.5,1.821,1.821,0,0,1,.845-.183,2.862,2.862,0,0,1,1.029.215Z" transform="translate(-513.888 -34.974)" fill="#fff"/>
        <path id="Path_992" data-name="Path 992" d="M864.841,65.615a2.276,2.276,0,0,0-.879-.5,3.742,3.742,0,0,0-1.127-.16,4.626,4.626,0,0,0-.981.1,5.159,5.159,0,0,0-.818.243,4.49,4.49,0,0,0-.618.3,2.886,2.886,0,0,0-.377.259l.633,1.324a2.764,2.764,0,0,1,.287-.206,4.166,4.166,0,0,1,.412-.228,2.738,2.738,0,0,1,.528-.19,2.46,2.46,0,0,1,.62-.076,1.352,1.352,0,0,1,.877.259,1.058,1.058,0,0,1,.318.867v.106c-.2.02-.442.043-.736.069a7.24,7.24,0,0,0-.814.114,5.418,5.418,0,0,0-1.007.274,3.282,3.282,0,0,0-.852.472,2.128,2.128,0,0,0-.589.707,2.065,2.065,0,0,0-.217.966,2.229,2.229,0,0,0,.209.981,2.257,2.257,0,0,0,.55.731,2.465,2.465,0,0,0,.783.456,2.694,2.694,0,0,0,.922.16,2.807,2.807,0,0,0,1.054-.193,2.1,2.1,0,0,0,.79-.53l.077.547h1.746V67.751a3.439,3.439,0,0,0-.208-1.269,2.324,2.324,0,0,0-.58-.866m-1.111,4.906a2.121,2.121,0,0,1-.6.381,1.786,1.786,0,0,1-.723.152,1.188,1.188,0,0,1-.769-.221.716.716,0,0,1-.272-.586,1,1,0,0,1,.241-.646,1.437,1.437,0,0,1,.863-.418q.295-.06.622-.1c.218-.024.429-.042.637-.053Z" transform="translate(-525.649 -38.904)" fill="#fff"/>
        <path id="Path_993" data-name="Path 993" d="M880.492,68.441a.622.622,0,0,1-.4-.137.594.594,0,0,1-.169-.487V64.09h1.714V62.569h-1.714v-1.9h-1.915v1.9h-1.05V64.09h1.05V68.2a1.931,1.931,0,0,0,.482,1.323,1.87,1.87,0,0,0,1.478.548,3.7,3.7,0,0,0,1.12-.168,3.064,3.064,0,0,0,.888-.426l-.495-1.354a1.577,1.577,0,0,1-.988.32" transform="translate(-536 -36.336)" fill="#fff"/>
        <rect id="Rectangle_95" data-name="Rectangle 95" width="1.914" height="7.333" transform="translate(347.005 26.232)" fill="#fff"/>
        <path id="Path_994" data-name="Path 994" d="M892.483,58.353a1.084,1.084,0,0,0-.872.335,1.1,1.1,0,0,0-.286.731,1.117,1.117,0,0,0,.286.745,1.081,1.081,0,0,0,.872.335,1.064,1.064,0,0,0,.857-.335,1.12,1.12,0,0,0,.286-.745,1.105,1.105,0,0,0-.286-.731,1.067,1.067,0,0,0-.857-.335" transform="translate(-544.52 -34.95)" fill="#fff"/>
        <path id="Path_995" data-name="Path 995" d="M906.09,66.148a3.355,3.355,0,0,0-1.112-.867,3.5,3.5,0,0,0-1.559-.327,3.544,3.544,0,0,0-1.568.327,3.252,3.252,0,0,0-1.112.867,3.786,3.786,0,0,0-.664,1.225,4.487,4.487,0,0,0-.224,1.4,4.558,4.558,0,0,0,.224,1.407,3.859,3.859,0,0,0,.664,1.24,3.285,3.285,0,0,0,1.112.882,3.829,3.829,0,0,0,3.134,0,3.283,3.283,0,0,0,1.112-.882,3.872,3.872,0,0,0,.663-1.24,4.544,4.544,0,0,0,.224-1.407,4.473,4.473,0,0,0-.224-1.4,3.712,3.712,0,0,0-.671-1.225m-1.1,3.5a2.2,2.2,0,0,1-.324.709,1.626,1.626,0,0,1-.526.481,1.444,1.444,0,0,1-.725.175,1.492,1.492,0,0,1-.734-.175,1.528,1.528,0,0,1-.525-.481,2.337,2.337,0,0,1-.317-.709,3.608,3.608,0,0,1,0-1.748,2.105,2.105,0,0,1,.325-.709,1.642,1.642,0,0,1,.525-.473,1.58,1.58,0,0,1,1.451,0,1.645,1.645,0,0,1,.526.473,2.1,2.1,0,0,1,.324.709,3.584,3.584,0,0,1,0,1.748" transform="translate(-549.576 -38.904)" fill="#fff"/>
        <path id="Path_996" data-name="Path 996" d="M926.766,65.684a2.107,2.107,0,0,0-.849-.555,3.222,3.222,0,0,0-1.08-.175,3.4,3.4,0,0,0-1.136.2,3.33,3.33,0,0,0-1.011.562l-.092-.578h-1.745v7.333h1.914v-5.2a3.552,3.552,0,0,1,.656-.5,1.569,1.569,0,0,1,.826-.229,1.181,1.181,0,0,1,.988.457,2.06,2.06,0,0,1,.356,1.293v4.184h1.914V68.133a4.842,4.842,0,0,0-.193-1.46,2.556,2.556,0,0,0-.548-.989" transform="translate(-562.029 -38.904)" fill="#fff"/>
        <path id="Path_997" data-name="Path 997" d="M643.093,0a20.663,20.663,0,0,0-20.814,20.508,20.816,20.816,0,0,0,41.628,0A20.663,20.663,0,0,0,643.093,0" transform="translate(-381.987 0)" fill="#fff"/>
        <path id="Path_998" data-name="Path 998" d="M656.784,34.644c-5.719.019-11.669-4.791-11.694-12.512a17.31,17.31,0,0,1,6.353-12.938,20.967,20.967,0,0,1,12.594-4.684,5.307,5.307,0,0,1,1.5.163,8.55,8.55,0,0,0-6.789,8.187,2.157,2.157,0,0,0,.026.334c6.338,1.521,9.215,5.289,9.232,10.5a11.054,11.054,0,0,1-11.22,10.949" transform="translate(-395.513 -2.701)" fill="#e70505"/>
        <rect id="Rectangle_96" data-name="Rectangle 96" width="0.282" height="41.016" transform="translate(174.219)" fill="#fff"/>
      </g>
    </g>
    <text id="Powered_by" data-name="Powered by" transform="translate(186.932 11.724)" fill="#fff" font-size="8" font-family="Helvetica"><tspan x="0" y="0" letter-spacing="-0.009em">Pow</tspan><tspan y="0">e</tspan><tspan y="0" letter-spacing="-0.004em">r</tspan><tspan y="0">ed </tspan><tspan y="0" letter-spacing="-0.006em">b</tspan><tspan y="0">y</tspan></text>
    <g id="Group_141" data-name="Group 141" transform="translate(0 0)">
      <g id="Group_140" data-name="Group 140" transform="translate(0 0)" clip-path="url(#clip-path-2)">
        <path id="Path_999" data-name="Path 999" d="M149.337,35.93c-.249,1.227-.451,2.31-.6,3.243-.446-1.072-.963-2.221-1.546-3.437l-4.142-8.747h-4.639l-4.158,20.158h5.1l1.85-8.937c.241-1.153.443-2.24.605-3.254.446,1.072.963,2.225,1.546,3.445l4.142,8.746h4.3l4.159-20.158h-4.76Z" transform="translate(-79.603 -16.165)" fill="#fff"/>
        <path id="Path_1000" data-name="Path 1000" d="M196.735,39.385h4.3l-.043.223a4.472,4.472,0,0,1-.56,1.5,3.348,3.348,0,0,1-.911.977,3.758,3.758,0,0,1-1.255.557,6.723,6.723,0,0,1-1.62.187,3.263,3.263,0,0,1-2.633-.989,4.826,4.826,0,0,1-.9-3.176,10.639,10.639,0,0,1,.2-2.1,9.529,9.529,0,0,1,.62-1.984,7.9,7.9,0,0,1,1.04-1.729,6.717,6.717,0,0,1,1.461-1.362,6.847,6.847,0,0,1,1.931-.9,9.644,9.644,0,0,1,4.433-.134,14.246,14.246,0,0,1,2.194.618l.674.245.841-4.061-.492-.183a16.171,16.171,0,0,0-5.516-.959,13.29,13.29,0,0,0-3.537.454,11.554,11.554,0,0,0-3.006,1.295,10.965,10.965,0,0,0-2.409,2.017,11.855,11.855,0,0,0-1.761,2.6,13.2,13.2,0,0,0-1.072,3.056,15.439,15.439,0,0,0-.354,3.38,9.457,9.457,0,0,0,.6,3.439,6.912,6.912,0,0,0,4.217,4.11,9.31,9.31,0,0,0,3.146.518,14.876,14.876,0,0,0,3.07-.311,8.581,8.581,0,0,0,2.757-1.092,7.3,7.3,0,0,0,2.163-2.092,8.919,8.919,0,0,0,1.3-3.249l1.025-4.962h-9.066Z" transform="translate(-111.692 -15.637)" fill="#fff"/>
        <path id="Path_1001" data-name="Path 1001" d="M265.266,26.482a16.54,16.54,0,0,0-3.492-.375,9.855,9.855,0,0,0-3.078.456,7.057,7.057,0,0,0-2.408,1.321,5.915,5.915,0,0,0-1.559,2.089,6.448,6.448,0,0,0-.539,2.675,5.387,5.387,0,0,0,.383,2.071,4.655,4.655,0,0,0,1.046,1.553,5.861,5.861,0,0,0,1.519,1.054,12.757,12.757,0,0,0,1.787.7q.78.228,1.524.434a7.565,7.565,0,0,1,1.207.436,2.151,2.151,0,0,1,.718.525,1,1,0,0,1,.209.671,2.255,2.255,0,0,1-1.034,1.966,4.259,4.259,0,0,1-1.313.559,7.345,7.345,0,0,1-1.817.207,10.663,10.663,0,0,1-2.725-.34,13.353,13.353,0,0,1-2.347-.844l-.716-.344-.838,4.042.363.224a6.788,6.788,0,0,0,1.031.494,11.456,11.456,0,0,0,1.437.45,16.766,16.766,0,0,0,1.76.331,14.885,14.885,0,0,0,2.015.134,13.38,13.38,0,0,0,3.657-.47,8.411,8.411,0,0,0,2.867-1.4,6.422,6.422,0,0,0,1.861-2.282,6.811,6.811,0,0,0,.646-3.025,4.406,4.406,0,0,0-1.939-3.816,7.633,7.633,0,0,0-1.83-.917c-.626-.219-1.263-.426-1.89-.616-.417-.128-.817-.264-1.191-.405a3.893,3.893,0,0,1-.874-.45,1.758,1.758,0,0,1-.516-.559,1.556,1.556,0,0,1-.18-.782,1.624,1.624,0,0,1,.708-1.409,3.842,3.842,0,0,1,2.3-.586,11.11,11.11,0,0,1,2.412.268,19.451,19.451,0,0,1,2.8.892l.682.268.859-4.068-.462-.2a17.067,17.067,0,0,0-3.042-.934" transform="translate(-145.303 -15.637)" fill="#fff"/>
        <path id="Path_1002" data-name="Path 1002" d="M313.852,28.107a7.018,7.018,0,0,0-2.577-1.508,10.237,10.237,0,0,0-3.249-.492,10.818,10.818,0,0,0-3.88.657,10.49,10.49,0,0,0-2.99,1.731,10.9,10.9,0,0,0-2.172,2.46,15.311,15.311,0,0,0-2.213,5.639,14.853,14.853,0,0,0-.237,2.553,9.132,9.132,0,0,0,.584,3.34,6.762,6.762,0,0,0,1.665,2.486,7,7,0,0,0,2.576,1.507,10.222,10.222,0,0,0,3.249.492,10.818,10.818,0,0,0,3.881-.657,10.5,10.5,0,0,0,2.989-1.731,10.885,10.885,0,0,0,2.172-2.46,15.286,15.286,0,0,0,2.213-5.638,14.878,14.878,0,0,0,.237-2.553,9.154,9.154,0,0,0-.584-3.341,6.776,6.776,0,0,0-1.666-2.485m-9.009,14.72a4.558,4.558,0,0,1-1.528-.24,2.773,2.773,0,0,1-1.081-.678,3.1,3.1,0,0,1-.692-1.146,5.116,5.116,0,0,1-.259-1.691,11.565,11.565,0,0,1,.19-2.092,11.377,11.377,0,0,1,.578-2.063A9.8,9.8,0,0,1,303,33.063a7.179,7.179,0,0,1,1.29-1.481,5.766,5.766,0,0,1,1.6-.978,5.031,5.031,0,0,1,1.9-.35,3.526,3.526,0,0,1,2.616.925,3.862,3.862,0,0,1,.944,2.829,11.544,11.544,0,0,1-.191,2.092,11.344,11.344,0,0,1-.578,2.063,9.8,9.8,0,0,1-.953,1.853,7.178,7.178,0,0,1-1.29,1.481,5.739,5.739,0,0,1-1.6.978,5.022,5.022,0,0,1-1.9.351" transform="translate(-171.833 -15.637)" fill="#fff"/>
        <path id="Path_1003" data-name="Path 1003" d="M352.711,30.84a3.842,3.842,0,0,1,2.3-.586,11.108,11.108,0,0,1,2.411.268,19.381,19.381,0,0,1,2.8.892l.683.268.859-4.068-.462-.2a17.038,17.038,0,0,0-3.043-.934,16.507,16.507,0,0,0-3.491-.375,9.846,9.846,0,0,0-3.078.456,7.07,7.07,0,0,0-2.408,1.321,5.913,5.913,0,0,0-1.559,2.089,6.446,6.446,0,0,0-.539,2.675,5.372,5.372,0,0,0,.383,2.071,4.65,4.65,0,0,0,1.046,1.552,5.836,5.836,0,0,0,1.518,1.054,12.805,12.805,0,0,0,1.786.7q.78.227,1.524.434a7.593,7.593,0,0,1,1.207.437,2.143,2.143,0,0,1,.717.525.991.991,0,0,1,.209.671h0a2.255,2.255,0,0,1-1.034,1.966,4.26,4.26,0,0,1-1.313.559,7.339,7.339,0,0,1-1.816.207,10.661,10.661,0,0,1-2.725-.34,13.285,13.285,0,0,1-2.347-.844l-.716-.343-.838,4.042.363.223a6.659,6.659,0,0,0,1.031.494,11.411,11.411,0,0,0,1.437.45,17.005,17.005,0,0,0,1.76.331,14.9,14.9,0,0,0,2.016.133,13.369,13.369,0,0,0,3.657-.47,8.419,8.419,0,0,0,2.867-1.4,6.425,6.425,0,0,0,1.861-2.282,6.821,6.821,0,0,0,.646-3.025,4.4,4.4,0,0,0-1.939-3.815,7.668,7.668,0,0,0-1.83-.918c-.628-.219-1.265-.426-1.89-.616-.417-.128-.818-.263-1.191-.4a3.914,3.914,0,0,1-.875-.45,1.755,1.755,0,0,1-.515-.559,1.552,1.552,0,0,1-.18-.782,1.62,1.62,0,0,1,.707-1.408" transform="translate(-200.444 -15.637)" fill="#fff"/>
        <path id="Path_1004" data-name="Path 1004" d="M47.962,39.538a6.18,6.18,0,0,0-5.795,4.744A3.774,3.774,0,0,0,46,49.026a6.181,6.181,0,0,0,5.8-4.744,3.775,3.775,0,0,0-3.835-4.744" transform="translate(-24.944 -23.681)" fill="#fff"/>
        <path id="Path_1005" data-name="Path 1005" d="M60.631,12.944a.673.673,0,0,0,.631-.517.411.411,0,0,0-.418-.517.673.673,0,0,0-.631.517.412.412,0,0,0,.418.517" transform="translate(-35.698 -7.133)" fill="#fff"/>
        <path id="Path_1006" data-name="Path 1006" d="M4.469,40.42a20.559,20.559,0,0,1,2.954-7.045l-4.171,0a25.237,25.237,0,0,0-2.8,7.33A20.331,20.331,0,0,0,.279,48.33H4.711a16.178,16.178,0,0,1-.242-7.91" transform="translate(0 -19.99)" fill="#fff"/>
        <path id="Path_1007" data-name="Path 1007" d="M84.007,33.4H79.389a10.824,10.824,0,0,1,.99,7.524,15.163,15.163,0,0,1-4.066,7.426h4.155a19.527,19.527,0,0,0,3.712-7.914,14.7,14.7,0,0,0-.173-7.035" transform="translate(-45.251 -20.004)" fill="#fff"/>
        <path id="Path_1008" data-name="Path 1008" d="M18.085,40.6a15.1,15.1,0,0,1,3.891-7.242l-4.394,0a19.358,19.358,0,0,0-3.3,7.357,14.508,14.508,0,0,0,.349,7.6h4.555a10.771,10.771,0,0,1-1.1-7.719" transform="translate(-8.266 -19.982)" fill="#fff"/>
        <path id="Path_1009" data-name="Path 1009" d="M98.961,33.4H94.51a16.357,16.357,0,0,1,.089,7.346,20.725,20.725,0,0,1-3.327,7.6h4.139a25.454,25.454,0,0,0,3.256-8.107,20.631,20.631,0,0,0,.295-6.842" transform="translate(-54.121 -20.004)" fill="#fff"/>
        <path id="Path_1010" data-name="Path 1010" d="M46.607,23.242a9.839,9.839,0,0,0-.215-5.064L48.4,7.44a2.605,2.605,0,0,0-2.57-3.064l-12.915.063a3.345,3.345,0,0,0-3.251,2.555L27.12,17.739a13.419,13.419,0,0,0-2.856,5.8,9.8,9.8,0,0,0,.254,5.185l-2.582,10.9a2.8,2.8,0,0,0,2.255,3.388l13.64,2.458a3.4,3.4,0,0,0,3.957-2.681L44.56,27.97a13.091,13.091,0,0,0,2.047-4.728M39.473,41.189a1.646,1.646,0,0,1-1.622,1.326,1.7,1.7,0,0,1-.3-.027L24.392,40.117a1.1,1.1,0,0,1-.729-.477,1.072,1.072,0,0,1-.153-.849L30.966,7.31a1.6,1.6,0,0,1,1.559-1.225l12.446-.06a.9.9,0,0,1,.688.326.875.875,0,0,1,.194.734Z" transform="translate(-12.962 -2.621)" fill="#fff"/>
        <path id="Path_1011" data-name="Path 1011" d="M41.893,92.152l-9.775-1.678a.323.323,0,0,0-.371.257.317.317,0,0,0,.261.365l9.775,1.678a.329.329,0,0,0,.055,0,.316.316,0,0,0,.055-.627" transform="translate(-18.822 -54.187)" fill="#fff"/>
      </g>
    </g>
    <text id="_-" data-name="-" transform="translate(98 6.619)" fill="#f1f7f6" stroke="#f1f7f6" stroke-width="1" font-size="20" font-family="HelveticaNeue-MediumItalic, Helvetica Neue" font-weight="500" font-style="italic"><tspan x="0" y="20">-</tspan></text>
  </g>
</svg>
